{
  "asset": {
    "version": "2.0",
    "generator": "forg test generator"
  },
  "scene": 0,
  "scenes": [
    {
      "nodes": [
        0
      ]
    }
  ],
  "nodes": [
    {
      "mesh": 0,
      "translation": [
        10.0,
        0.0,
        0.0
      ]
    }
  ],
  "meshes": [
    {
      "primitives": [
        {
          "attributes": {
            "POSITION": 0,
            "NORMAL": 1
          },
          "indices": 2,
          "mode": 4
        }
      ]
    }
  ],
  "accessors": [
    {
      "bufferView": 0,
      "componentType": 5126,
      "count": 3,
      "type": "VEC3",
      "min": [
        0.0,
        0.0,
        0.0
      ],
      "max": [
        1.0,
        1.0,
        0.0
      ]
    },
    {
      "bufferView": 1,
      "componentType": 5126,
      "count": 3,
      "type": "VEC3"
    },
    {
      "bufferView": 2,
      "componentType": 5123,
      "count": 3,
      "type": "SCALAR"
    }
  ],
  "bufferViews": [
    {
      "buffer": 0,
      "byteOffset": 0,
      "byteLength": 36,
      "target": 34962
    },
    {
      "buffer": 0,
      "byteOffset": 36,
      "byteLength": 36,
      "target": 34962
    },
    {
      "buffer": 0,
      "byteOffset": 72,
      "byteLength": 6,
      "target": 34963
    }
  ],
  "buffers": [
    {
      "byteLength": 78,
      "uri": "data:application/octet-stream;base64,"
    }
  ]
}